<svg width="151" height="22" viewBox="0 0 151 22" fill="none" xmlns="http://www.w3.org/2000/svg">
<path d="M9.11425 4.29509H11.1498V1.13974C10.7987 1.09674 9.59086 1 8.18425 1C5.24931 1 3.2388 2.643 3.2388 5.66274V8.44186H6.10352e-05V11.9693H3.2388V20.845H7.20965V11.9701H10.3174L10.8107 8.44269H7.20872V6.01251C7.20965 4.99297 7.51811 4.29509 9.11425 4.29509Z" fill="white"/>
<path d="M80.8559 4.11613C79.9366 4.475 78.9571 4.71288 77.9359 4.82838C78.9865 4.27013 79.7883 3.39287 80.1653 2.3355C79.1858 2.85525 78.1043 3.22238 76.9518 3.42725C76.0218 2.54588 74.6962 2 73.2501 2C70.4445 2 68.1858 4.02675 68.1858 6.51137C68.1858 6.86888 68.2198 7.21263 68.3032 7.53988C64.0902 7.357 60.3622 5.55988 57.8578 2.82225C57.4206 3.49738 57.1642 4.27012 57.1642 5.102C57.1642 6.664 58.068 8.04862 59.4152 8.85025C58.601 8.8365 57.8022 8.62613 57.1255 8.29475C57.1255 8.3085 57.1255 8.32638 57.1255 8.34425C57.1255 10.536 58.8821 12.3565 61.1857 12.7759C60.7732 12.8763 60.3236 12.9244 59.857 12.9244C59.5326 12.9244 59.205 12.9079 58.8976 12.8474C59.5542 14.6335 61.4174 15.9466 63.6328 15.9893C61.9087 17.1896 59.7195 17.9129 57.3496 17.9129C56.934 17.9129 56.5354 17.8964 56.1368 17.851C58.3816 19.1394 61.042 19.875 63.9109 19.875C73.2362 19.875 78.3345 13 78.3345 7.04075C78.3345 6.84137 78.3268 6.64887 78.316 6.45775C79.3218 5.8225 80.1668 5.02913 80.8559 4.11613Z" fill="white"/>
<path fill-rule="evenodd" clip-rule="evenodd" d="M133.524 0H142.794C147.06 0 150.519 3.07862 150.519 6.875V15.125C150.519 18.9214 147.06 22 142.794 22H133.524C129.259 22 125.8 18.9214 125.8 15.125V6.875C125.8 3.07862 129.259 0 133.524 0ZM142.794 19.9375C145.776 19.9375 148.201 17.7787 148.201 15.125V6.875C148.201 4.22125 145.776 2.0625 142.794 2.0625H133.524C130.543 2.0625 128.117 4.22125 128.117 6.875V15.125C128.117 17.7787 130.543 19.9375 133.524 19.9375H142.794Z" fill="white"/>
<path fill-rule="evenodd" clip-rule="evenodd" d="M131.979 11C131.979 7.96263 134.746 5.5 138.159 5.5C141.572 5.5 144.339 7.96263 144.339 11C144.339 14.0374 141.572 16.5 138.159 16.5C134.746 16.5 131.979 14.0374 131.979 11ZM134.297 11C134.297 12.8948 136.03 14.4375 138.159 14.4375C140.288 14.4375 142.022 12.8948 142.022 11C142.022 9.10388 140.288 7.5625 138.159 7.5625C136.03 7.5625 134.297 9.10388 134.297 11Z" fill="white"/>
<ellipse cx="144.802" cy="5.08737" rx="0.823455" ry="0.732875" fill="white"/>
</svg>
