<svg width="18" height="14" viewBox="0 0 18 14" fill="none" xmlns="http://www.w3.org/2000/svg">
<path fill-rule="evenodd" clip-rule="evenodd" d="M9.18641 3.30222C11.6735 3.30232 14.0655 4.22441 15.868 5.87789C16.0038 6.00554 16.2207 6.00393 16.3544 5.87428L17.6519 4.61081C17.7196 4.54505 17.7573 4.45597 17.7568 4.36329C17.7562 4.27061 17.7174 4.18197 17.6489 4.11697C12.9179 -0.257741 5.45418 -0.257741 0.723168 4.11697C0.654636 4.18192 0.615752 4.27054 0.61512 4.36322C0.614488 4.4559 0.652161 4.545 0.719801 4.61081L2.01767 5.87428C2.15126 6.00413 2.36839 6.00574 2.50404 5.87789C4.30678 4.2243 6.69906 3.30221 9.18641 3.30222ZM9.18306 7.5225C10.5404 7.52241 11.8493 8.03415 12.8554 8.95828C12.9915 9.08943 13.2058 9.08659 13.3385 8.95187L14.6258 7.63256C14.6936 7.56336 14.7312 7.46948 14.7302 7.37193C14.7292 7.27438 14.6897 7.1813 14.6206 7.11351C11.5567 4.22266 6.81199 4.22266 3.74816 7.11351C3.67895 7.1813 3.63947 7.27443 3.63856 7.37201C3.63765 7.46959 3.6754 7.56346 3.74333 7.63256L5.03024 8.95187C5.16289 9.08659 5.37726 9.08943 5.51334 8.95828C6.51879 8.03476 7.82664 7.52307 9.18306 7.5225ZM11.7075 10.316C11.7094 10.4214 11.6723 10.523 11.605 10.5968L9.42838 13.0515C9.36458 13.1236 9.27758 13.1642 9.18681 13.1642C9.09604 13.1642 9.00905 13.1236 8.94524 13.0515L6.76822 10.5968C6.70096 10.5229 6.66397 10.4213 6.66596 10.316C6.66796 10.2106 6.70877 10.1108 6.77875 10.0402C8.16885 8.72634 10.2048 8.72634 11.5949 10.0402C11.6648 10.1109 11.7056 10.2107 11.7075 10.316Z" fill="black"/>
</svg>
