<svg width="15" height="15" viewBox="0 0 15 15" fill="none" xmlns="http://www.w3.org/2000/svg">
<mask id="mask0_2507_1569" style="mask-type:luminance" maskUnits="userSpaceOnUse" x="0" y="0" width="15" height="15">
<path d="M15 0H0V15H15V0Z" fill="white"/>
</mask>
<g mask="url(#mask0_2507_1569)">
<path d="M10.275 1.9375C9.14375 1.9375 8.13125 2.4875 7.5 3.33125C6.86875 2.4875 5.85625 1.9375 4.725 1.9375C2.80625 1.9375 1.25 3.5 1.25 5.43125C1.25 6.175 1.36875 6.86249 1.575 7.49999C2.5625 10.625 5.60625 12.4937 7.1125 13.0062C7.325 13.0812 7.675 13.0812 7.8875 13.0062C9.39375 12.4937 12.4375 10.625 13.425 7.49999C13.6312 6.86249 13.75 6.175 13.75 5.43125C13.75 3.5 12.1938 1.9375 10.275 1.9375Z" fill="#DB2A1D"/>
</g>
</svg>
