<svg width="151" height="22" viewBox="0 0 151 22" fill="none" xmlns="http://www.w3.org/2000/svg">
<path d="M9.59563 4.29509H11.6312V1.13974C11.28 1.09674 10.0722 1 8.66563 1C5.7307 1 3.72019 2.643 3.72019 5.66274V8.44186H0.481445V11.9693H3.72019V20.845H7.69104V11.9701H10.7988L11.2921 8.44269H7.69011V6.01251C7.69104 4.99297 7.99949 4.29509 9.59563 4.29509Z" fill="white"/>
<path d="M81.3373 4.11613C80.418 4.475 79.4385 4.71288 78.4173 4.82838C79.4679 4.27013 80.2697 3.39287 80.6467 2.3355C79.6672 2.85525 78.5857 3.22238 77.4332 3.42725C76.5031 2.54588 75.1776 2 73.7315 2C70.9259 2 68.6672 4.02675 68.6672 6.51137C68.6672 6.86888 68.7012 7.21263 68.7846 7.53988C64.5715 7.357 60.8436 5.55988 58.3392 2.82225C57.902 3.49738 57.6456 4.27012 57.6456 5.102C57.6456 6.664 58.5493 8.04862 59.8965 8.85025C59.0823 8.8365 58.2836 8.62613 57.6069 8.29475C57.6069 8.3085 57.6069 8.32638 57.6069 8.34425C57.6069 10.536 59.3635 12.3565 61.667 12.7759C61.2545 12.8763 60.805 12.9244 60.3384 12.9244C60.014 12.9244 59.6864 12.9079 59.379 12.8474C60.0356 14.6335 61.8988 15.9466 64.1142 15.9893C62.3901 17.1896 60.2009 17.9129 57.8309 17.9129C57.4154 17.9129 57.0168 17.8964 56.6182 17.851C58.863 19.1394 61.5234 19.875 64.3923 19.875C73.7176 19.875 78.8159 13 78.8159 7.04075C78.8159 6.84137 78.8082 6.64887 78.7974 6.45775C79.8031 5.8225 80.6482 5.02913 81.3373 4.11613Z" fill="white"/>
<path fill-rule="evenodd" clip-rule="evenodd" d="M134.006 0H143.276C147.541 0 151 3.07862 151 6.875V15.125C151 18.9214 147.541 22 143.276 22H134.006C129.74 22 126.281 18.9214 126.281 15.125V6.875C126.281 3.07862 129.74 0 134.006 0ZM143.276 19.9375C146.257 19.9375 148.683 17.7787 148.683 15.125V6.875C148.683 4.22125 146.257 2.0625 143.276 2.0625H134.006C131.024 2.0625 128.599 4.22125 128.599 6.875V15.125C128.599 17.7787 131.024 19.9375 134.006 19.9375H143.276Z" fill="white"/>
<path fill-rule="evenodd" clip-rule="evenodd" d="M132.461 11C132.461 7.96263 135.228 5.5 138.641 5.5C142.053 5.5 144.82 7.96263 144.82 11C144.82 14.0374 142.053 16.5 138.641 16.5C135.228 16.5 132.461 14.0374 132.461 11ZM134.778 11C134.778 12.8948 136.512 14.4375 138.641 14.4375C140.77 14.4375 142.503 12.8948 142.503 11C142.503 9.10388 140.77 7.5625 138.641 7.5625C136.512 7.5625 134.778 9.10388 134.778 11Z" fill="white"/>
<ellipse cx="145.284" cy="5.08737" rx="0.823455" ry="0.732875" fill="white"/>
</svg>
