<svg width="57" height="46" viewBox="0 0 57 46" fill="none" xmlns="http://www.w3.org/2000/svg">
<path d="M56.0705 22.6651C56.0705 16.7242 53.7104 11.0265 49.5095 6.82559C45.3086 2.62469 39.6109 0.264649 33.67 0.264648C27.729 0.264648 22.0314 2.62469 17.8305 6.82559C13.6296 11.0265 11.2695 16.7242 11.2695 22.6651H18.2698C20.5894 22.6651 22.3985 20.7212 23.2481 18.5627C23.806 17.1456 24.6524 15.8432 25.7502 14.7453C27.8506 12.6449 30.6995 11.4649 33.67 11.4649C36.6405 11.4649 39.4893 12.6449 41.5898 14.7453C43.6903 16.8458 44.8702 19.6947 44.8702 22.6651H56.0705Z" fill="url(#paint0_linear_66_3630)"/>
<path d="M43.1652 31.2373C44.291 28.5195 44.8705 25.6066 44.8705 22.665H56.0695C56.0695 35.0364 46.0404 45.0654 33.669 45.0654C31.7316 45.0654 29.8515 44.8195 28.0586 44.3571C29.073 44.0957 30.0701 43.7629 31.0422 43.3603C33.76 42.2345 36.2294 40.5846 38.3095 38.5045C40.3896 36.4244 42.0396 33.955 43.1652 31.2373Z" fill="#007900"/>
<path d="M0.0703125 22.665C0.0703121 25.6068 0.649717 28.5196 1.77544 31.2374C2.90118 33.9552 4.55118 36.4246 6.63126 38.5047C8.71132 40.5846 11.1807 42.2347 13.8985 43.3604C16.6162 44.4862 19.5291 45.0655 22.4708 45.0655C25.4124 45.0655 28.3253 44.4862 31.043 43.3604C33.7608 42.2347 36.2302 40.5846 38.3103 38.5047C40.3904 36.4246 42.0403 33.9552 43.1661 31.2374C44.2918 28.5196 44.8713 25.6068 44.8713 22.665H37.871C35.5514 22.665 33.7423 24.609 32.8927 26.7673C32.8685 26.8288 32.8437 26.8901 32.8184 26.9513C32.2556 28.3101 31.4306 29.5449 30.3905 30.5849C29.3505 31.6248 28.1157 32.4499 26.7569 33.0128C25.3981 33.5757 23.9417 33.8654 22.4708 33.8654C20.9999 33.8654 19.5435 33.5757 18.1847 33.0128C16.8257 32.4499 15.5911 31.6248 14.551 30.5849C13.511 29.5449 12.686 28.3101 12.1231 26.9513C11.5602 25.5923 11.2705 24.1359 11.2705 22.665H0.0703125Z" fill="url(#paint1_linear_66_3630)"/>
<path d="M0.0722656 22.6651C0.0722656 10.2936 10.1013 0.264648 22.4726 0.264648C24.4096 0.264648 26.2891 0.510485 28.0819 0.97268C24.2352 1.96363 20.6867 3.96904 17.83 6.82561C13.6291 11.0265 11.2691 16.7242 11.2691 22.6651H0.0722656Z" fill="#B3FDC3"/>
<defs>
<linearGradient id="paint0_linear_66_3630" x1="56.0705" y1="11.4649" x2="11.2695" y2="11.4649" gradientUnits="userSpaceOnUse">
<stop stop-color="#99FCAF"/>
<stop offset="1" stop-color="#007900"/>
</linearGradient>
<linearGradient id="paint1_linear_66_3630" x1="0.070314" y1="33.8654" x2="44.8713" y2="33.8654" gradientUnits="userSpaceOnUse">
<stop stop-color="#00AC00"/>
<stop offset="1" stop-color="#33F95E"/>
</linearGradient>
</defs>
</svg>
