<svg width="223" height="222" viewBox="0 0 223 222" fill="none" xmlns="http://www.w3.org/2000/svg">
<path d="M111.305 1C133.061 1 154.328 7.45139 172.417 19.5383C190.507 31.6253 204.606 48.805 212.931 68.9048C221.257 89.0047 223.435 111.122 219.191 132.46C214.947 153.798 204.47 173.398 189.086 188.782L167.308 167.003C178.384 155.927 185.927 141.814 188.983 126.451C192.039 111.088 190.47 95.1634 184.476 80.6915C178.481 66.2196 168.33 53.8502 155.306 45.1476C142.281 36.445 126.969 31.8 111.305 31.8V1Z" fill="#00C503" stroke="white" stroke-width="2"/>
<path d="M111.305 221C91.9957 221 73.0268 215.917 56.3047 206.263L71.7047 179.589C83.7446 186.54 97.4022 190.2 111.305 190.2L111.305 221Z" fill="#006304" stroke="white" stroke-width="2"/>
<path d="M56.3047 206.263C39.5826 196.608 25.6964 182.722 16.0419 166C6.38737 149.278 1.30469 130.309 1.30469 111H32.1047C32.1047 124.902 35.7642 138.56 42.7155 150.6C49.6667 162.64 59.6648 172.638 71.7047 179.589L56.3047 206.263Z" fill="#F44336" stroke="white" stroke-width="2"/>
<path d="M1.30469 111C1.30469 96.5546 4.14992 82.2506 9.67794 68.9048C15.206 55.559 23.3085 43.4327 33.523 33.2182L55.3018 54.9971C47.9474 62.3515 42.1136 71.0825 38.1334 80.6915C34.1533 90.3004 32.1047 100.599 32.1047 111H1.30469Z" fill="#B34C00" stroke="white" stroke-width="2"/>
<path d="M33.5229 33.2183C43.7374 23.0038 55.8637 14.9013 69.2095 9.37325C82.5553 3.84523 96.8593 1 111.305 1V31.8C100.904 31.8 90.6051 33.8486 80.9962 37.8287C71.3872 41.8089 62.6562 47.6427 55.3018 54.9971L33.5229 33.2183Z" fill="#666666" stroke="white" stroke-width="2"/>
<path d="M189.086 188.782C168.457 209.411 140.479 221 111.305 221V190.2C132.31 190.2 152.455 181.856 167.308 167.003L189.086 188.782Z" fill="#4DFA72" stroke="white" stroke-width="2"/>
</svg>
