<svg width="30" height="24" viewBox="0 0 30 24" fill="none" xmlns="http://www.w3.org/2000/svg">
<path d="M29.9991 12C29.9991 8.81745 28.7348 5.76517 26.4843 3.51473C24.2339 1.26429 21.1816 4.17349e-07 17.999 0C14.8165 -4.17348e-07 11.7642 1.26429 9.51377 3.51473C7.26331 5.76517 5.99902 8.81745 5.99902 12H9.74908C10.9917 12 11.9609 10.9587 12.416 9.80235C12.7148 9.04317 13.1683 8.3455 13.7564 7.75736C14.8816 6.63215 16.4078 6.00001 17.999 6.00001C19.5903 6.00001 21.1165 6.63215 22.2417 7.75736C23.367 8.88258 23.999 10.4087 23.999 12H29.9991Z" fill="url(#paint0_linear_760_3930)"/>
<path d="M23.0868 16.5922C23.6899 15.1363 24.0003 13.5758 24.0003 12H29.9997C29.9997 18.6274 24.6271 24 17.9997 24C16.9618 24 15.9546 23.8682 14.9941 23.6205C15.5376 23.4805 16.0717 23.3022 16.5925 23.0865C18.0484 22.4835 19.3713 21.5996 20.4856 20.4853C21.5999 19.371 22.4838 18.0481 23.0868 16.5922Z" fill="#007900"/>
<path d="M0 12C-2.25441e-07 13.5759 0.31039 15.1363 0.913446 16.5923C1.51651 18.0482 2.40042 19.371 3.51473 20.4854C4.62903 21.5996 5.9519 22.4835 7.40781 23.0866C8.86371 23.6897 10.4241 24 12 24C13.5759 24 15.1363 23.6897 16.5922 23.0866C18.0481 22.4835 19.371 21.5996 20.4853 20.4854C21.5996 19.371 22.4835 18.0482 23.0866 16.5923C23.6896 15.1363 24.0001 13.5759 24.0001 12H20.25C19.0074 12 18.0382 13.0414 17.5831 14.1976C17.5702 14.2306 17.5568 14.2634 17.5433 14.2962C17.2418 15.0241 16.7998 15.6856 16.2426 16.2427C15.6855 16.7998 15.024 17.2418 14.2961 17.5433C13.5682 17.8449 12.788 18.0001 12 18.0001C11.2121 18.0001 10.4319 17.8449 9.70395 17.5433C8.97595 17.2418 8.31456 16.7998 7.75736 16.2427C7.20022 15.6856 6.75827 15.0241 6.45674 14.2962C6.1552 13.5682 6.00001 12.788 6.00001 12H0Z" fill="url(#paint1_linear_760_3930)"/>
<path d="M0.000976562 12C0.000976562 5.37258 5.37356 0 12.001 0C13.0386 0 14.0455 0.131696 15.0059 0.379295C12.9452 0.91015 11.0442 1.98446 9.51387 3.51473C7.26344 5.76515 5.99917 8.81745 5.99917 12H0.000976562Z" fill="#B3FDC3"/>
<defs>
<linearGradient id="paint0_linear_760_3930" x1="29.9991" y1="6.00001" x2="5.99902" y2="6.00001" gradientUnits="userSpaceOnUse">
<stop stop-color="#99FCAF"/>
<stop offset="1" stop-color="#007900"/>
</linearGradient>
<linearGradient id="paint1_linear_760_3930" x1="7.86806e-07" y1="18.0001" x2="24.0001" y2="18.0001" gradientUnits="userSpaceOnUse">
<stop stop-color="#00AC00"/>
<stop offset="1" stop-color="#33F95E"/>
</linearGradient>
</defs>
</svg>
