<svg xmlns="http://www.w3.org/2000/svg" viewBox="0 0 512 512">
<path d="M459.4 151.7c.3 4.1 .3 8.2 .3 12.3 0 125.8-95.8 270.9-270.9 270.9-53.9 0-104-15.8-146.2-43.1 7.6 .9 15.2 1.2 23.1 1.2 44.7 0 85.8-15.2 118.4-41.2-41.9 -.9-77.1-28.4-89.2-66.5 5.8 .9 11.7 1.5 17.8 1.5 8.6 0 17-1.2 24.8-3.3-43.9-8.9-77.1-47.8-77.1-94.5v-1.2c12.9 7.2 27.9 11.7 43.9 12.3-25.8-17.3-42.9-46.6-42.9-79.8 0-17.6 4.7-34.2 12.9-48.4 47.5 58.5 118.4 96.9 198.4 101-1.5-7.2-2.4-14.7-2.4-22.3 0-53.6 43.6-97.2 97.2-97.2 28 0 53.4 11.7 71.2 30.7 22.3-4.4 43.3-12.3 62.1-23.6-7.3 22.6-22.6 41.9-42.9 54.1 19.8-2.1 38.7-7.6 56.1-15.2-13.5 19.5-30.5 36.7-50.2 50.2z"/>
</svg>
