<svg width="154" height="146" viewBox="0 0 154 146" fill="none" xmlns="http://www.w3.org/2000/svg">
<g clip-path="url(#clip0_66_1702)">
<path d="M154 0H0V146H154V0Z" fill="white"/>
<path d="M16.0417 9.125H9.625V15.2083H16.0417V9.125Z" fill="black"/>
<path d="M22.4583 9.125H16.0417V15.2083H22.4583V9.125Z" fill="black"/>
<path d="M28.875 9.125H22.4583V15.2083H28.875V9.125Z" fill="black"/>
<path d="M35.2917 9.125H28.875V15.2083H35.2917V9.125Z" fill="black"/>
<path d="M41.7083 9.125H35.2917V15.2083H41.7083V9.125Z" fill="black"/>
<path d="M48.125 9.125H41.7083V15.2083H48.125V9.125Z" fill="black"/>
<path d="M54.5417 9.125H48.125V15.2083H54.5417V9.125Z" fill="black"/>
<path d="M67.375 9.125H60.9583V15.2083H67.375V9.125Z" fill="black"/>
<path d="M73.7917 9.125H67.375V15.2083H73.7917V9.125Z" fill="black"/>
<path d="M80.2083 9.125H73.7917V15.2083H80.2083V9.125Z" fill="black"/>
<path d="M105.875 9.125H99.4583V15.2083H105.875V9.125Z" fill="black"/>
<path d="M112.292 9.125H105.875V15.2083H112.292V9.125Z" fill="black"/>
<path d="M118.708 9.125H112.292V15.2083H118.708V9.125Z" fill="black"/>
<path d="M125.125 9.125H118.708V15.2083H125.125V9.125Z" fill="black"/>
<path d="M131.542 9.125H125.125V15.2083H131.542V9.125Z" fill="black"/>
<path d="M137.958 9.125H131.542V15.2083H137.958V9.125Z" fill="black"/>
<path d="M144.375 9.125H137.958V15.2083H144.375V9.125Z" fill="black"/>
<path d="M16.0417 15.2083H9.625V21.2917H16.0417V15.2083Z" fill="black"/>
<path d="M54.5417 15.2083H48.125V21.2917H54.5417V15.2083Z" fill="black"/>
<path d="M73.7917 15.2083H67.375L67.375 21.2917H73.7917V15.2083Z" fill="black"/>
<path d="M80.2083 15.2083H73.7917V21.2917H80.2083V15.2083Z" fill="black"/>
<path d="M93.0417 15.2083H86.625V21.2917H93.0417V15.2083Z" fill="black"/>
<path d="M105.875 15.2083H99.4583V21.2917H105.875V15.2083Z" fill="black"/>
<path d="M144.375 15.2083H137.958V21.2917H144.375V15.2083Z" fill="black"/>
<path d="M16.0417 21.2917H9.625V27.375H16.0417V21.2917Z" fill="black"/>
<path d="M28.875 21.2917H22.4583V27.375H28.875V21.2917Z" fill="black"/>
<path d="M35.2917 21.2917H28.875V27.375H35.2917V21.2917Z" fill="black"/>
<path d="M41.7083 21.2917H35.2917V27.375H41.7083V21.2917Z" fill="black"/>
<path d="M54.5417 21.2917H48.125V27.375H54.5417V21.2917Z" fill="black"/>
<path d="M67.375 21.2917H60.9583V27.375H67.375L67.375 21.2917Z" fill="black"/>
<path d="M73.7917 21.2917H67.375L67.375 27.375H73.7917V21.2917Z" fill="black"/>
<path d="M105.875 21.2917H99.4583V27.375H105.875V21.2917Z" fill="black"/>
<path d="M118.708 21.2917H112.292V27.375H118.708V21.2917Z" fill="black"/>
<path d="M125.125 21.2917H118.708V27.375H125.125V21.2917Z" fill="black"/>
<path d="M131.542 21.2917H125.125V27.375H131.542V21.2917Z" fill="black"/>
<path d="M144.375 21.2917H137.958V27.375H144.375V21.2917Z" fill="black"/>
<path d="M16.0417 27.375H9.625V33.4583H16.0417V27.375Z" fill="black"/>
<path d="M28.875 27.375H22.4583V33.4583H28.875V27.375Z" fill="black"/>
<path d="M35.2917 27.375H28.875V33.4583H35.2917V27.375Z" fill="black"/>
<path d="M41.7083 27.375H35.2917V33.4583H41.7083V27.375Z" fill="black"/>
<path d="M54.5417 27.375H48.125V33.4583H54.5417V27.375Z" fill="black"/>
<path d="M67.375 27.375H60.9583V33.4583H67.375V27.375Z" fill="black"/>
<path d="M80.2083 27.375H73.7917L73.7917 33.4583H80.2083V27.375Z" fill="black"/>
<path d="M86.625 27.375H80.2083V33.4583H86.625V27.375Z" fill="black"/>
<path d="M93.0417 27.375H86.625V33.4583H93.0417V27.375Z" fill="black"/>
<path d="M105.875 27.375H99.4583V33.4583H105.875V27.375Z" fill="black"/>
<path d="M118.708 27.375H112.292V33.4583H118.708V27.375Z" fill="black"/>
<path d="M125.125 27.375H118.708V33.4583H125.125V27.375Z" fill="black"/>
<path d="M131.542 27.375H125.125V33.4583H131.542V27.375Z" fill="black"/>
<path d="M144.375 27.375H137.958V33.4583H144.375V27.375Z" fill="black"/>
<path d="M16.0417 33.4583H9.625V39.5417H16.0417V33.4583Z" fill="black"/>
<path d="M28.875 33.4583H22.4583V39.5417H28.875V33.4583Z" fill="black"/>
<path d="M35.2917 33.4583H28.875V39.5417H35.2917V33.4583Z" fill="black"/>
<path d="M41.7083 33.4583H35.2917V39.5417H41.7083V33.4583Z" fill="black"/>
<path d="M54.5417 33.4583H48.125V39.5417H54.5417V33.4583Z" fill="black"/>
<path d="M67.375 33.4583H60.9583V39.5417H67.375V33.4583Z" fill="black"/>
<path d="M73.7917 33.4583H67.375V39.5417H73.7917L73.7917 33.4583Z" fill="black"/>
<path d="M105.875 33.4583H99.4583V39.5417H105.875V33.4583Z" fill="black"/>
<path d="M118.708 33.4583H112.292V39.5417H118.708V33.4583Z" fill="black"/>
<path d="M125.125 33.4583H118.708V39.5417H125.125V33.4583Z" fill="black"/>
<path d="M131.542 33.4583H125.125V39.5417H131.542V33.4583Z" fill="black"/>
<path d="M144.375 33.4583H137.958V39.5417H144.375V33.4583Z" fill="black"/>
<path d="M16.0417 39.5417H9.625V45.625H16.0417V39.5417Z" fill="black"/>
<path d="M54.5417 39.5417H48.125V45.625H54.5417V39.5417Z" fill="black"/>
<path d="M67.375 39.5417H60.9583V45.625H67.375V39.5417Z" fill="black"/>
<path d="M73.7917 39.5417H67.375V45.625H73.7917V39.5417Z" fill="black"/>
<path d="M105.875 39.5417H99.4583V45.625H105.875V39.5417Z" fill="black"/>
<path d="M144.375 39.5417H137.958V45.625H144.375V39.5417Z" fill="black"/>
<path d="M16.0417 45.625H9.625V51.7083H16.0417V45.625Z" fill="black"/>
<path d="M22.4583 45.625H16.0417V51.7083H22.4583V45.625Z" fill="black"/>
<path d="M28.875 45.625H22.4583V51.7083H28.875V45.625Z" fill="black"/>
<path d="M35.2917 45.625H28.875V51.7083H35.2917V45.625Z" fill="black"/>
<path d="M41.7083 45.625H35.2917V51.7083H41.7083V45.625Z" fill="black"/>
<path d="M48.125 45.625H41.7083V51.7083H48.125V45.625Z" fill="black"/>
<path d="M54.5417 45.625H48.125V51.7083H54.5417V45.625Z" fill="black"/>
<path d="M67.375 45.625H60.9583V51.7083H67.375V45.625Z" fill="black"/>
<path d="M80.2083 45.625H73.7917L73.7917 51.7083H80.2083V45.625Z" fill="black"/>
<path d="M93.0417 45.625H86.625V51.7083H93.0417V45.625Z" fill="black"/>
<path d="M105.875 45.625H99.4583V51.7083H105.875V45.625Z" fill="black"/>
<path d="M112.292 45.625H105.875V51.7083H112.292V45.625Z" fill="black"/>
<path d="M118.708 45.625H112.292V51.7083H118.708V45.625Z" fill="black"/>
<path d="M125.125 45.625H118.708V51.7083H125.125V45.625Z" fill="black"/>
<path d="M131.542 45.625H125.125V51.7083H131.542V45.625Z" fill="black"/>
<path d="M137.958 45.625H131.542V51.7083H137.958V45.625Z" fill="black"/>
<path d="M144.375 45.625H137.958V51.7083H144.375V45.625Z" fill="black"/>
<path d="M73.7917 51.7083H67.375L67.375 57.7917H73.7917L73.7917 51.7083Z" fill="black"/>
<path d="M80.2083 51.7083H73.7917L73.7917 57.7917H80.2083V51.7083Z" fill="black"/>
<path d="M86.625 51.7083H80.2083V57.7917H86.625V51.7083Z" fill="black"/>
<path d="M93.0417 51.7083H86.625V57.7917H93.0417V51.7083Z" fill="black"/>
<path d="M28.875 57.7917H22.4583V63.875H28.875V57.7917Z" fill="black"/>
<path d="M35.2917 57.7917H28.875V63.875H35.2917V57.7917Z" fill="black"/>
<path d="M41.7083 57.7917H35.2917V63.875H41.7083V57.7917Z" fill="black"/>
<path d="M48.125 57.7917H41.7083V63.875H48.125V57.7917Z" fill="black"/>
<path d="M54.5417 57.7917H48.125V63.875H54.5417V57.7917Z" fill="black"/>
<path d="M60.9583 57.7917H54.5417V63.875H60.9583V57.7917Z" fill="black"/>
<path d="M73.7917 57.7917H67.375V63.875H73.7917V57.7917Z" fill="black"/>
<path d="M93.0417 57.7917H86.625V63.875H93.0417V57.7917Z" fill="black"/>
<path d="M99.4583 57.7917L93.0417 57.7917V63.875H99.4583V57.7917Z" fill="black"/>
<path d="M112.292 57.7917H105.875V63.875H112.292V57.7917Z" fill="black"/>
<path d="M118.708 57.7917H112.292V63.875H118.708V57.7917Z" fill="black"/>
<path d="M125.125 57.7917H118.708V63.875H125.125V57.7917Z" fill="black"/>
<path d="M131.542 57.7917H125.125V63.875H131.542V57.7917Z" fill="black"/>
<path d="M144.375 57.7917H137.958V63.875H144.375V57.7917Z" fill="black"/>
<path d="M16.0417 63.875H9.625V69.9583H16.0417V63.875Z" fill="black"/>
<path d="M35.2917 63.875H28.875V69.9583H35.2917V63.875Z" fill="black"/>
<path d="M60.9583 63.875H54.5417V69.9583H60.9583V63.875Z" fill="black"/>
<path d="M73.7917 63.875H67.375V69.9583H73.7917V63.875Z" fill="black"/>
<path d="M80.2083 63.875L73.7917 63.875V69.9583H80.2083V63.875Z" fill="black"/>
<path d="M86.625 63.875L80.2083 63.875V69.9583H86.625V63.875Z" fill="black"/>
<path d="M93.0417 63.875H86.625V69.9583H93.0417V63.875Z" fill="black"/>
<path d="M105.875 63.875H99.4583V69.9583H105.875V63.875Z" fill="black"/>
<path d="M118.708 63.875H112.292V69.9583H118.708V63.875Z" fill="black"/>
<path d="M131.542 63.875H125.125V69.9583H131.542V63.875Z" fill="black"/>
<path d="M144.375 63.875H137.958V69.9583H144.375V63.875Z" fill="black"/>
<path d="M22.4583 69.9583L16.0417 69.9583V76.0417H22.4583V69.9583Z" fill="black"/>
<path d="M28.875 69.9583L22.4583 69.9583V76.0417H28.875V69.9583Z" fill="black"/>
<path d="M41.7083 69.9583L35.2917 69.9583V76.0417H41.7083V69.9583Z" fill="black"/>
<path d="M54.5417 69.9583L48.125 69.9583V76.0417H54.5417V69.9583Z" fill="black"/>
<path d="M73.7917 69.9583H67.375V76.0417H73.7917V69.9583Z" fill="black"/>
<path d="M86.625 69.9583H80.2083L80.2083 76.0417H86.625V69.9583Z" fill="black"/>
<path d="M99.4583 69.9583H93.0417V76.0417H99.4583V69.9583Z" fill="black"/>
<path d="M112.292 69.9583H105.875V76.0417H112.292V69.9583Z" fill="black"/>
<path d="M118.708 69.9583H112.292V76.0417H118.708V69.9583Z" fill="black"/>
<path d="M125.125 69.9583H118.708V76.0417H125.125V69.9583Z" fill="black"/>
<path d="M144.375 69.9583H137.958V76.0417H144.375V69.9583Z" fill="black"/>
<path d="M22.4583 76.0417H16.0417V82.125H22.4583V76.0417Z" fill="black"/>
<path d="M41.7083 76.0417H35.2917V82.125H41.7083V76.0417Z" fill="black"/>
<path d="M60.9583 76.0417L54.5417 76.0417V82.125H60.9583V76.0417Z" fill="black"/>
<path d="M80.2083 76.0417H73.7917L73.7917 82.125H80.2083L80.2083 76.0417Z" fill="black"/>
<path d="M93.0417 76.0417H86.625V82.125H93.0417V76.0417Z" fill="black"/>
<path d="M99.4583 76.0417H93.0417V82.125H99.4583V76.0417Z" fill="black"/>
<path d="M112.292 76.0417H105.875V82.125H112.292V76.0417Z" fill="black"/>
<path d="M131.542 76.0417L125.125 76.0417V82.125H131.542V76.0417Z" fill="black"/>
<path d="M144.375 76.0417H137.958V82.125H144.375V76.0417Z" fill="black"/>
<path d="M28.875 82.125H22.4583V88.2083H28.875V82.125Z" fill="black"/>
<path d="M35.2917 82.125H28.875V88.2083H35.2917V82.125Z" fill="black"/>
<path d="M41.7083 82.125H35.2917V88.2083H41.7083V82.125Z" fill="black"/>
<path d="M48.125 82.125H41.7083V88.2083H48.125V82.125Z" fill="black"/>
<path d="M54.5417 82.125H48.125V88.2083H54.5417V82.125Z" fill="black"/>
<path d="M60.9583 82.125H54.5417V88.2083H60.9583V82.125Z" fill="black"/>
<path d="M67.375 82.125H60.9583V88.2083H67.375V82.125Z" fill="black"/>
<path d="M73.7917 82.125H67.375V88.2083H73.7917L73.7917 82.125Z" fill="black"/>
<path d="M99.4583 82.125H93.0417V88.2083H99.4583V82.125Z" fill="black"/>
<path d="M105.875 82.125H99.4583V88.2083H105.875V82.125Z" fill="black"/>
<path d="M112.292 82.125H105.875V88.2083H112.292V82.125Z" fill="black"/>
<path d="M118.708 82.125H112.292V88.2083H118.708V82.125Z" fill="black"/>
<path d="M125.125 82.125H118.708V88.2083H125.125V82.125Z" fill="black"/>
<path d="M80.2083 88.2083H73.7917L73.7917 94.2917H80.2083V88.2083Z" fill="black"/>
<path d="M93.0417 88.2083H86.625V94.2917H93.0417V88.2083Z" fill="black"/>
<path d="M99.4583 88.2083H93.0417V94.2917H99.4583V88.2083Z" fill="black"/>
<path d="M112.292 88.2083H105.875V94.2917H112.292V88.2083Z" fill="black"/>
<path d="M131.542 88.2083H125.125V94.2917H131.542V88.2083Z" fill="black"/>
<path d="M144.375 88.2083H137.958V94.2917H144.375V88.2083Z" fill="black"/>
<path d="M16.0417 94.2917H9.625V100.375H16.0417V94.2917Z" fill="black"/>
<path d="M22.4583 94.2917H16.0417V100.375H22.4583V94.2917Z" fill="black"/>
<path d="M28.875 94.2917H22.4583V100.375H28.875V94.2917Z" fill="black"/>
<path d="M35.2917 94.2917H28.875V100.375H35.2917V94.2917Z" fill="black"/>
<path d="M41.7083 94.2917H35.2917V100.375H41.7083V94.2917Z" fill="black"/>
<path d="M48.125 94.2917H41.7083V100.375H48.125V94.2917Z" fill="black"/>
<path d="M54.5417 94.2917H48.125V100.375H54.5417V94.2917Z" fill="black"/>
<path d="M67.375 94.2917H60.9583V100.375H67.375V94.2917Z" fill="black"/>
<path d="M99.4583 94.2917H93.0417V100.375H99.4583V94.2917Z" fill="black"/>
<path d="M105.875 94.2917H99.4583V100.375H105.875V94.2917Z" fill="black"/>
<path d="M112.292 94.2917H105.875V100.375H112.292V94.2917Z" fill="black"/>
<path d="M16.0417 100.375H9.625V106.458H16.0417V100.375Z" fill="black"/>
<path d="M54.5417 100.375H48.125V106.458H54.5417V100.375Z" fill="black"/>
<path d="M67.375 100.375H60.9583V106.458H67.375V100.375Z" fill="black"/>
<path d="M73.7917 100.375H67.375V106.458H73.7917V100.375Z" fill="black"/>
<path d="M86.625 100.375H80.2083V106.458H86.625V100.375Z" fill="black"/>
<path d="M99.4583 100.375H93.0417V106.458H99.4583V100.375Z" fill="black"/>
<path d="M105.875 100.375H99.4583V106.458H105.875V100.375Z" fill="black"/>
<path d="M118.708 100.375H112.292V106.458H118.708V100.375Z" fill="black"/>
<path d="M125.125 100.375H118.708V106.458H125.125V100.375Z" fill="black"/>
<path d="M144.375 100.375H137.958V106.458H144.375V100.375Z" fill="black"/>
<path d="M16.0417 106.458H9.625V112.542H16.0417V106.458Z" fill="black"/>
<path d="M28.875 106.458H22.4583V112.542H28.875V106.458Z" fill="black"/>
<path d="M35.2917 106.458H28.875V112.542H35.2917V106.458Z" fill="black"/>
<path d="M41.7083 106.458H35.2917V112.542H41.7083V106.458Z" fill="black"/>
<path d="M54.5417 106.458H48.125V112.542H54.5417V106.458Z" fill="black"/>
<path d="M67.375 106.458H60.9583V112.542H67.375V106.458Z" fill="black"/>
<path d="M80.2083 106.458H73.7917L73.7917 112.542H80.2083L80.2083 106.458Z" fill="black"/>
<path d="M86.625 106.458H80.2083L80.2083 112.542H86.625V106.458Z" fill="black"/>
<path d="M93.0417 106.458H86.625V112.542H93.0417V106.458Z" fill="black"/>
<path d="M112.292 106.458H105.875V112.542H112.292V106.458Z" fill="black"/>
<path d="M125.125 106.458H118.708V112.542H125.125V106.458Z" fill="black"/>
<path d="M16.0417 112.542H9.625V118.625H16.0417V112.542Z" fill="black"/>
<path d="M28.875 112.542H22.4583V118.625H28.875V112.542Z" fill="black"/>
<path d="M35.2917 112.542H28.875V118.625H35.2917V112.542Z" fill="black"/>
<path d="M41.7083 112.542H35.2917V118.625H41.7083V112.542Z" fill="black"/>
<path d="M54.5417 112.542H48.125V118.625H54.5417V112.542Z" fill="black"/>
<path d="M67.375 112.542H60.9583V118.625H67.375V112.542Z" fill="black"/>
<path d="M80.2083 112.542H73.7917V118.625H80.2083V112.542Z" fill="black"/>
<path d="M86.625 112.542H80.2083V118.625H86.625V112.542Z" fill="black"/>
<path d="M99.4583 112.542H93.0417V118.625H99.4583V112.542Z" fill="black"/>
<path d="M112.292 112.542H105.875V118.625H112.292V112.542Z" fill="black"/>
<path d="M125.125 112.542H118.708V118.625H125.125V112.542Z" fill="black"/>
<path d="M137.958 112.542H131.542V118.625H137.958V112.542Z" fill="black"/>
<path d="M16.0417 118.625H9.625V124.708H16.0417V118.625Z" fill="black"/>
<path d="M28.875 118.625H22.4583V124.708H28.875V118.625Z" fill="black"/>
<path d="M35.2917 118.625H28.875V124.708H35.2917V118.625Z" fill="black"/>
<path d="M41.7083 118.625H35.2917V124.708H41.7083V118.625Z" fill="black"/>
<path d="M54.5417 118.625H48.125V124.708H54.5417V118.625Z" fill="black"/>
<path d="M67.375 118.625H60.9583V124.708H67.375V118.625Z" fill="black"/>
<path d="M73.7917 118.625H67.375V124.708H73.7917L73.7917 118.625Z" fill="black"/>
<path d="M80.2083 118.625H73.7917L73.7917 124.708H80.2083V118.625Z" fill="black"/>
<path d="M86.625 118.625H80.2083V124.708H86.625V118.625Z" fill="black"/>
<path d="M99.4583 118.625H93.0417V124.708H99.4583V118.625Z" fill="black"/>
<path d="M112.292 118.625H105.875V124.708H112.292V118.625Z" fill="black"/>
<path d="M125.125 118.625H118.708V124.708H125.125V118.625Z" fill="black"/>
<path d="M131.542 118.625H125.125V124.708H131.542V118.625Z" fill="black"/>
<path d="M137.958 118.625H131.542V124.708H137.958V118.625Z" fill="black"/>
<path d="M16.0417 124.708H9.625V130.792H16.0417V124.708Z" fill="black"/>
<path d="M54.5417 124.708H48.125V130.792H54.5417V124.708Z" fill="black"/>
<path d="M80.2083 124.708H73.7917L73.7917 130.792H80.2083V124.708Z" fill="black"/>
<path d="M93.0417 124.708H86.625V130.792H93.0417V124.708Z" fill="black"/>
<path d="M105.875 124.708H99.4583V130.792H105.875V124.708Z" fill="black"/>
<path d="M118.708 124.708H112.292V130.792H118.708V124.708Z" fill="black"/>
<path d="M144.375 124.708H137.958V130.792H144.375V124.708Z" fill="black"/>
<path d="M16.0417 130.792H9.625V136.875H16.0417V130.792Z" fill="black"/>
<path d="M22.4583 130.792H16.0417V136.875H22.4583V130.792Z" fill="black"/>
<path d="M28.875 130.792H22.4583V136.875H28.875V130.792Z" fill="black"/>
<path d="M35.2917 130.792H28.875V136.875H35.2917V130.792Z" fill="black"/>
<path d="M41.7083 130.792H35.2917V136.875H41.7083V130.792Z" fill="black"/>
<path d="M48.125 130.792H41.7083V136.875H48.125V130.792Z" fill="black"/>
<path d="M54.5417 130.792H48.125V136.875H54.5417V130.792Z" fill="black"/>
<path d="M73.7917 130.792H67.375V136.875H73.7917L73.7917 130.792Z" fill="black"/>
<path d="M86.625 130.792H80.2083L80.2083 136.875H86.625V130.792Z" fill="black"/>
<path d="M93.0417 130.792H86.625V136.875H93.0417V130.792Z" fill="black"/>
<path d="M99.4583 130.792H93.0417V136.875H99.4583V130.792Z" fill="black"/>
<path d="M112.292 130.792H105.875V136.875H112.292V130.792Z" fill="black"/>
</g>
<defs>
<clipPath id="clip0_66_1702">
<rect width="154" height="146" fill="white"/>
</clipPath>
</defs>
</svg>
