<svg width="20" height="14" viewBox="0 0 20 14" fill="none" xmlns="http://www.w3.org/2000/svg">
<path fill-rule="evenodd" clip-rule="evenodd" d="M19.6152 2.03295C19.6152 1.3999 19.1376 0.886719 18.5485 0.886719H17.4818C16.8927 0.886719 16.4152 1.3999 16.4152 2.03295V11.9669C16.4152 12.5999 16.8927 13.1131 17.4818 13.1131H18.5485C19.1376 13.1131 19.6152 12.5999 19.6152 11.9669V2.03295ZM12.181 3.332H13.2477C13.8368 3.332 14.3144 3.8575 14.3144 4.50574V11.9394C14.3144 12.5876 13.8368 13.1131 13.2477 13.1131H12.181C11.5919 13.1131 11.1144 12.5876 11.1144 11.9394V4.50574C11.1144 3.8575 11.5919 3.332 12.181 3.332ZM7.84928 5.98105H6.78261C6.19351 5.98105 5.71594 6.51324 5.71594 7.16973V11.9244C5.71594 12.5809 6.19351 13.1131 6.78261 13.1131H7.84928C8.43838 13.1131 8.91594 12.5809 8.91594 11.9244V7.16973C8.91594 6.51324 8.43838 5.98105 7.84928 5.98105ZM2.54849 8.42634H1.48183C0.892724 8.42634 0.415161 8.95093 0.415161 9.59804V11.9414C0.415161 12.5885 0.892724 13.1131 1.48183 13.1131H2.54849C3.1376 13.1131 3.61516 12.5885 3.61516 11.9414V9.59804C3.61516 8.95093 3.1376 8.42634 2.54849 8.42634Z" fill="black"/>
</svg>
