<svg width="40" height="40" viewBox="0 0 40 40" fill="none" xmlns="http://www.w3.org/2000/svg">
<path d="M36.6166 30.5499C36.6166 31.1499 36.4833 31.7666 36.2 32.3666C35.9166 32.9666 35.55 33.5333 35.0666 34.0666C34.25 34.9666 33.35 35.6166 32.3333 36.0333C31.3333 36.4499 30.25 36.6666 29.0833 36.6666C27.3833 36.6666 25.5666 36.2666 23.65 35.4499C21.7333 34.6333 19.8166 33.5333 17.9166 32.1499C16 30.7499 14.1833 29.1999 12.45 27.4833C10.7333 25.7499 9.18331 23.9333 7.79998 22.0333C6.43331 20.1333 5.33331 18.2333 4.53331 16.3499C3.73331 14.4499 3.33331 12.6333 3.33331 10.8999C3.33331 9.76659 3.53331 8.68325 3.93331 7.68325C4.33331 6.66659 4.96665 5.73325 5.84998 4.89992C6.91665 3.84992 8.08331 3.33325 9.31665 3.33325C9.78331 3.33325 10.25 3.43325 10.6666 3.63325C11.1 3.83325 11.4833 4.13325 11.7833 4.56659L15.65 10.0166C15.95 10.4333 16.1666 10.8166 16.3166 11.1833C16.4666 11.5333 16.55 11.8833 16.55 12.1999C16.55 12.5999 16.4333 12.9999 16.2 13.3833C15.9833 13.7666 15.6666 14.1666 15.2666 14.5666L14 15.8833C13.8166 16.0666 13.7333 16.2833 13.7333 16.5499C13.7333 16.6833 13.75 16.7999 13.7833 16.9333C13.8333 17.0666 13.8833 17.1666 13.9166 17.2666C14.2166 17.8166 14.7333 18.5333 15.4666 19.3999C16.2166 20.2666 17.0166 21.1499 17.8833 22.0333C18.7833 22.9166 19.65 23.7333 20.5333 24.4833C21.4 25.2166 22.1166 25.7166 22.6833 26.0166C22.7666 26.0499 22.8666 26.0999 22.9833 26.1499C23.1166 26.1999 23.25 26.2166 23.4 26.2166C23.6833 26.2166 23.9 26.1166 24.0833 25.9333L25.35 24.6833C25.7666 24.2666 26.1666 23.9499 26.55 23.7499C26.9333 23.5166 27.3166 23.3999 27.7333 23.3999C28.05 23.3999 28.3833 23.4666 28.75 23.6166C29.1166 23.7666 29.5 23.9833 29.9166 24.2666L35.4333 28.1833C35.8666 28.4833 36.1666 28.8333 36.35 29.2499C36.5166 29.6666 36.6166 30.0833 36.6166 30.5499Z" stroke="#333333" stroke-width="1.5" stroke-miterlimit="10"/>
</svg>
