<svg width="57" height="46" viewBox="0 0 57 46" fill="none" xmlns="http://www.w3.org/2000/svg">
<path d="M56.0712 22.6651C56.0712 16.7242 53.7111 11.0265 49.5102 6.82559C45.3093 2.62469 39.6117 0.264649 33.6707 0.264648C27.7298 0.264648 22.0322 2.62469 17.8312 6.82559C13.6303 11.0265 11.2703 16.7242 11.2703 22.6651H18.2705C20.5902 22.6651 22.3992 20.7212 23.2489 18.5627C23.8067 17.1456 24.6532 15.8432 25.7509 14.7453C27.8514 12.6449 30.7003 11.4649 33.6707 11.4649C36.6412 11.4649 39.4901 12.6449 41.5905 14.7453C43.691 16.8458 44.8709 19.6947 44.8709 22.6651H56.0712Z" fill="url(#paint0_linear_66_1251)"/>
<path d="M43.1667 31.2373C44.2925 28.5195 44.8719 25.6066 44.8719 22.665H56.071C56.071 35.0364 46.0419 45.0654 33.6705 45.0654C31.733 45.0654 29.8529 44.8195 28.0601 44.3571C29.0745 44.0957 30.0716 43.7629 31.0437 43.3603C33.7614 42.2345 36.2308 40.5846 38.3109 38.5045C40.391 36.4244 42.0411 33.955 43.1667 31.2373Z" fill="#007900"/>
<path d="M0.0712891 22.665C0.0712886 25.6068 0.650694 28.5196 1.77642 31.2374C2.90215 33.9552 4.55215 36.4246 6.63223 38.5047C8.7123 40.5846 11.1817 42.2347 13.8995 43.3604C16.6172 44.4862 19.53 45.0655 22.4718 45.0655C25.4134 45.0655 28.3262 44.4862 31.044 43.3604C33.7618 42.2347 36.2312 40.5846 38.3113 38.5047C40.3914 36.4246 42.0413 33.9552 43.167 31.2374C44.2928 28.5196 44.8723 25.6068 44.8723 22.665H37.872C35.5523 22.665 33.7433 24.609 32.8936 26.7673C32.8695 26.8288 32.8447 26.8901 32.8194 26.9513C32.2565 28.3101 31.4316 29.5449 30.3914 30.5849C29.3515 31.6248 28.1167 32.4499 26.7579 33.0128C25.3991 33.5757 23.9426 33.8654 22.4718 33.8654C21.0009 33.8654 19.5445 33.5757 18.1857 33.0128C16.8267 32.4499 15.5921 31.6248 14.552 30.5849C13.5119 29.5449 12.687 28.3101 12.1241 26.9513C11.5612 25.5923 11.2715 24.1359 11.2715 22.665H0.0712891Z" fill="url(#paint1_linear_66_1251)"/>
<path d="M0.072998 22.6651C0.072998 10.2936 10.102 0.264648 22.4734 0.264648C24.4104 0.264648 26.2899 0.510485 28.0826 0.97268C24.2359 1.96363 20.6874 3.96904 17.8307 6.82561C13.6298 11.0265 11.2698 16.7242 11.2698 22.6651H0.072998Z" fill="#B3FDC3"/>
<defs>
<linearGradient id="paint0_linear_66_1251" x1="56.0712" y1="11.4649" x2="11.2703" y2="11.4649" gradientUnits="userSpaceOnUse">
<stop stop-color="#99FCAF"/>
<stop offset="1" stop-color="#007900"/>
</linearGradient>
<linearGradient id="paint1_linear_66_1251" x1="0.0712905" y1="33.8654" x2="44.8723" y2="33.8654" gradientUnits="userSpaceOnUse">
<stop stop-color="#00AC00"/>
<stop offset="1" stop-color="#33F95E"/>
</linearGradient>
</defs>
</svg>
