<svg width="25" height="25" viewBox="0 0 25 25" fill="none" xmlns="http://www.w3.org/2000/svg">
<path d="M6.5 10.5V8.5C6.5 5.19 7.5 2.5 12.5 2.5C17.5 2.5 18.5 5.19 18.5 8.5V10.5" stroke="#424242" stroke-width="1.5" stroke-linecap="round" stroke-linejoin="round"/>
<path d="M12.5 19C13.8807 19 15 17.8807 15 16.5C15 15.1193 13.8807 14 12.5 14C11.1193 14 10 15.1193 10 16.5C10 17.8807 11.1193 19 12.5 19Z" stroke="#424242" stroke-width="1.5" stroke-linecap="round" stroke-linejoin="round"/>
<path d="M17.5 22.5H7.5C3.5 22.5 2.5 21.5 2.5 17.5V15.5C2.5 11.5 3.5 10.5 7.5 10.5H17.5C21.5 10.5 22.5 11.5 22.5 15.5V17.5C22.5 21.5 21.5 22.5 17.5 22.5Z" stroke="#424242" stroke-width="1.5" stroke-linecap="round" stroke-linejoin="round"/>
</svg>
