<svg width="70" height="69" viewBox="0 0 70 69" fill="none" xmlns="http://www.w3.org/2000/svg">
<path d="M31.4065 7.04367C33.3903 5.34742 36.639 5.34742 38.6515 7.04367L43.194 10.9537C44.0565 11.7012 45.6665 12.3049 46.8165 12.3049H51.704C54.7515 12.3049 57.2528 14.8062 57.2528 17.8537V22.7412C57.2528 23.8624 57.8565 25.5012 58.604 26.3637L62.514 30.9062C64.2103 32.8899 64.2103 36.1387 62.514 38.1512L58.604 42.6937C57.8565 43.5562 57.2528 45.1662 57.2528 46.3162V51.2037C57.2528 54.2512 54.7515 56.7524 51.704 56.7524H46.8165C45.6953 56.7524 44.0565 57.3562 43.194 58.1037L38.6515 62.0137C36.6678 63.7099 33.419 63.7099 31.4065 62.0137L26.864 58.1037C26.0015 57.3562 24.3915 56.7524 23.2415 56.7524H18.2678C15.2203 56.7524 12.719 54.2512 12.719 51.2037V46.2874C12.719 45.1662 12.1153 43.5562 11.3965 42.6937L7.51527 38.1224C5.84777 36.1387 5.84777 32.9187 7.51527 30.9349L11.3965 26.3637C12.1153 25.5012 12.719 23.8912 12.719 22.7699V17.8249C12.719 14.7774 15.2203 12.2762 18.2678 12.2762H23.2415C24.3628 12.2762 26.0015 11.6724 26.864 10.9249L31.4065 7.04367Z" fill="#197C1D"/>
<path d="M24.5928 34.5L31.5215 41.4575L45.4078 27.5425" stroke="white" stroke-width="1.5" stroke-linecap="round" stroke-linejoin="round"/>
</svg>
