<svg width="20" height="14" viewBox="0 0 20 14" fill="none" xmlns="http://www.w3.org/2000/svg">
<path fill-rule="evenodd" clip-rule="evenodd" d="M19.616 2.03295C19.616 1.3999 19.1385 0.886719 18.5493 0.886719H17.4827C16.8936 0.886719 16.416 1.3999 16.416 2.03295V11.9669C16.416 12.5999 16.8936 13.1131 17.4827 13.1131H18.5493C19.1385 13.1131 19.616 12.5999 19.616 11.9669V2.03295ZM12.1819 3.332H13.2486C13.8377 3.332 14.3152 3.8575 14.3152 4.50574V11.9394C14.3152 12.5876 13.8377 13.1131 13.2486 13.1131H12.1819C11.5928 13.1131 11.1152 12.5876 11.1152 11.9394V4.50574C11.1152 3.8575 11.5928 3.332 12.1819 3.332ZM7.85013 5.98105H6.78346C6.19436 5.98105 5.7168 6.51324 5.7168 7.16973V11.9244C5.7168 12.5809 6.19436 13.1131 6.78346 13.1131H7.85013C8.43923 13.1131 8.9168 12.5809 8.9168 11.9244V7.16973C8.9168 6.51324 8.43923 5.98105 7.85013 5.98105ZM2.54935 8.42634H1.48268C0.893579 8.42634 0.416016 8.95093 0.416016 9.59804V11.9414C0.416016 12.5885 0.893579 13.1131 1.48268 13.1131H2.54935C3.13845 13.1131 3.61602 12.5885 3.61602 11.9414V9.59804C3.61602 8.95093 3.13845 8.42634 2.54935 8.42634Z" fill="black"/>
</svg>
