<svg width="53" height="79" viewBox="0 0 53 79" fill="none" xmlns="http://www.w3.org/2000/svg">
<path d="M25.2938 0.936074C30.2924 2.55052 34.9241 5.13371 38.9244 8.53815C42.9247 11.9426 46.2153 16.1016 48.6083 20.7778C51.0013 25.4539 52.4498 30.5556 52.8711 35.7916C53.2925 41.0275 52.6784 46.2952 51.0639 51.2938C49.4495 56.2924 46.8663 60.9241 43.4618 64.9244C40.0574 68.9247 35.8984 72.2153 31.2222 74.6083C26.5461 77.0013 21.4444 78.4498 16.2084 78.8711C10.9725 79.2925 5.70481 78.6784 0.706186 77.0639L3.90762 67.1517C7.60455 68.3457 11.5005 68.7999 15.3729 68.4883C19.2454 68.1766 23.0185 67.1053 26.477 65.3355C29.9354 63.5657 33.0114 61.132 35.5293 58.1734C38.0471 55.2149 39.9576 51.7893 41.1517 48.0924C42.3457 44.3954 42.7999 40.4995 42.4883 36.6271C42.1766 32.7546 41.1053 28.9815 39.3355 25.523C37.5657 22.0646 35.132 18.9886 32.1734 16.4707C29.2148 13.9528 25.7893 12.0423 22.0924 10.8483L25.2938 0.936074Z" fill="#00FF37"/>
</svg>
