<svg width="151" height="22" viewBox="0 0 151 22" fill="none" xmlns="http://www.w3.org/2000/svg">
<path d="M9.59466 4.29509H11.6303V1.13974C11.2791 1.09674 10.0713 1 8.66466 1C5.72972 1 3.71921 2.643 3.71921 5.66274V8.44186H0.480469V11.9693H3.71921V20.845H7.69006V11.9701H10.7978L11.2911 8.44269H7.68913V6.01251C7.69006 4.99297 7.99851 4.29509 9.59466 4.29509Z" fill="white"/>
<path d="M81.3363 4.11613C80.417 4.475 79.4376 4.71288 78.4163 4.82838C79.4669 4.27013 80.2687 3.39287 80.6457 2.3355C79.6662 2.85525 78.5847 3.22238 77.4322 3.42725C76.5022 2.54588 75.1766 2 73.7305 2C70.9249 2 68.6662 4.02675 68.6662 6.51137C68.6662 6.86888 68.7002 7.21263 68.7836 7.53988C64.5706 7.357 60.8426 5.55988 58.3383 2.82225C57.901 3.49738 57.6446 4.27012 57.6446 5.102C57.6446 6.664 58.5484 8.04862 59.8956 8.85025C59.0814 8.8365 58.2826 8.62613 57.606 8.29475C57.606 8.3085 57.606 8.32638 57.606 8.34425C57.606 10.536 59.3626 12.3565 61.6661 12.7759C61.2536 12.8763 60.804 12.9244 60.3374 12.9244C60.013 12.9244 59.6854 12.9079 59.378 12.8474C60.0346 14.6335 61.8978 15.9466 64.1133 15.9893C62.3891 17.1896 60.1999 17.9129 57.83 17.9129C57.4144 17.9129 57.0158 17.8964 56.6172 17.851C58.862 19.1394 61.5224 19.875 64.3913 19.875C73.7166 19.875 78.8149 13 78.8149 7.04075C78.8149 6.84137 78.8072 6.64887 78.7964 6.45775C79.8022 5.8225 80.6472 5.02913 81.3363 4.11613Z" fill="white"/>
<path fill-rule="evenodd" clip-rule="evenodd" d="M134.004 0H143.274C147.539 0 150.998 3.07862 150.998 6.875V15.125C150.998 18.9214 147.539 22 143.274 22H134.004C129.738 22 126.279 18.9214 126.279 15.125V6.875C126.279 3.07862 129.738 0 134.004 0ZM143.274 19.9375C146.255 19.9375 148.681 17.7787 148.681 15.125V6.875C148.681 4.22125 146.255 2.0625 143.274 2.0625H134.004C131.022 2.0625 128.597 4.22125 128.597 6.875V15.125C128.597 17.7787 131.022 19.9375 134.004 19.9375H143.274Z" fill="white"/>
<path fill-rule="evenodd" clip-rule="evenodd" d="M132.459 11C132.459 7.96263 135.226 5.5 138.639 5.5C142.052 5.5 144.819 7.96263 144.819 11C144.819 14.0374 142.052 16.5 138.639 16.5C135.226 16.5 132.459 14.0374 132.459 11ZM134.776 11C134.776 12.8948 136.51 14.4375 138.639 14.4375C140.768 14.4375 142.501 12.8948 142.501 11C142.501 9.10388 140.768 7.5625 138.639 7.5625C136.51 7.5625 134.776 9.10388 134.776 11Z" fill="white"/>
<ellipse cx="145.282" cy="5.08737" rx="0.823455" ry="0.732875" fill="white"/>
</svg>
