<svg width="56" height="45" viewBox="0 0 56 45" fill="none" xmlns="http://www.w3.org/2000/svg">
<path d="M56.0002 22.4005C56.0002 16.4595 53.6401 10.7618 49.4392 6.56094C45.2383 2.36005 39.5406 7.79065e-07 33.5997 0C27.6587 -7.79063e-07 21.9611 2.36005 17.7602 6.56094C13.5593 10.7618 11.1992 16.4595 11.1992 22.4005H18.1995C20.5191 22.4005 22.3282 20.4566 23.1778 18.2981C23.7356 16.8809 24.5821 15.5786 25.6799 14.4807C27.7803 12.3802 30.6292 11.2002 33.5997 11.2002C36.5702 11.2002 39.419 12.3802 41.5195 14.4807C43.6199 16.5811 44.7999 19.43 44.7999 22.4005H56.0002Z" fill="url(#paint0_linear_66_1467)"/>
<path d="M43.0959 30.9726C44.2217 28.2548 44.8011 25.342 44.8011 22.4004H56.0002C56.0002 34.7718 45.9711 44.8007 33.5997 44.8007C31.6622 44.8007 29.7821 44.5548 27.9893 44.0924C29.0037 43.8311 30.0008 43.4982 30.9729 43.0956C33.6906 41.9699 36.16 40.32 38.2401 38.2399C40.3202 36.1598 41.9703 33.6904 43.0959 30.9726Z" fill="#007900"/>
<path d="M0 22.4004C-4.20832e-07 25.3421 0.579405 28.255 1.70513 30.9728C2.83087 33.6905 4.48086 36.1599 6.56094 38.24C8.64101 40.32 11.1104 41.97 13.8282 43.0958C16.5459 44.2215 19.4588 44.8009 22.4005 44.8009C25.3421 44.8009 28.2549 44.2215 30.9727 43.0958C33.6905 41.97 36.1599 40.32 38.24 38.24C40.3201 36.1599 41.97 33.6905 43.0957 30.9728C44.2215 28.255 44.801 25.3421 44.801 22.4004H37.8007C35.4811 22.4004 33.672 24.3443 32.8223 26.5027C32.7982 26.5642 32.7734 26.6254 32.7481 26.6866C32.1852 28.0455 31.3603 29.2802 30.3202 30.3202C29.2802 31.3602 28.0454 32.1853 26.6866 32.7482C25.3278 33.311 23.8714 33.6007 22.4005 33.6007C20.9296 33.6007 19.4732 33.311 18.1144 32.7482C16.7554 32.1853 15.5208 31.3602 14.4807 30.3202C13.4407 29.2802 12.6157 28.0455 12.0528 26.6866C11.4899 25.3277 11.2002 23.8713 11.2002 22.4004H0Z" fill="url(#paint1_linear_66_1467)"/>
<path d="M0.00195312 22.4005C0.00195312 10.029 10.031 0 22.4023 0C24.3393 0 26.2188 0.245837 28.0116 0.708031C24.1649 1.69898 20.6164 3.70439 17.7597 6.56096C13.5588 10.7618 11.1988 16.4595 11.1988 22.4005H0.00195312Z" fill="#B3FDC3"/>
<defs>
<linearGradient id="paint0_linear_66_1467" x1="56.0002" y1="11.2002" x2="11.1992" y2="11.2002" gradientUnits="userSpaceOnUse">
<stop stop-color="#99FCAF"/>
<stop offset="1" stop-color="#007900"/>
</linearGradient>
<linearGradient id="paint1_linear_66_1467" x1="1.46873e-06" y1="33.6007" x2="44.801" y2="33.6007" gradientUnits="userSpaceOnUse">
<stop stop-color="#00AC00"/>
<stop offset="1" stop-color="#33F95E"/>
</linearGradient>
</defs>
</svg>
