<svg width="56" height="45" viewBox="0 0 56 45" fill="none" xmlns="http://www.w3.org/2000/svg">
<path d="M55.9999 22.4005C55.9999 16.4595 53.6398 10.7618 49.4389 6.56094C45.238 2.36005 39.5404 7.79065e-07 33.5994 0C27.6585 -7.79063e-07 21.9609 2.36005 17.7599 6.56094C13.559 10.7618 11.199 16.4595 11.199 22.4005H18.1992C20.5189 22.4005 22.3279 20.4566 23.1776 18.2981C23.7354 16.8809 24.5819 15.5786 25.6796 14.4807C27.7801 12.3802 30.629 11.2002 33.5994 11.2002C36.5699 11.2002 39.4188 12.3802 41.5193 14.4807C43.6197 16.5811 44.7996 19.43 44.7996 22.4005H55.9999Z" fill="url(#paint0_linear_66_6161)"/>
<path d="M43.0954 30.9726C44.2212 28.2548 44.8007 25.342 44.8007 22.4004H55.9997C55.9997 34.7718 45.9706 44.8007 33.5992 44.8007C31.6618 44.8007 29.7817 44.5548 27.9888 44.0924C29.0032 43.8311 30.0003 43.4982 30.9724 43.0956C33.6902 41.9699 36.1596 40.32 38.2397 38.2399C40.3197 36.1598 41.9698 33.6904 43.0954 30.9726Z" fill="#007900"/>
<path d="M0 22.4004C-4.20832e-07 25.3421 0.579405 28.255 1.70513 30.9728C2.83087 33.6905 4.48086 36.1599 6.56094 38.24C8.64101 40.32 11.1104 41.97 13.8282 43.0958C16.5459 44.2215 19.4588 44.8009 22.4005 44.8009C25.3421 44.8009 28.2549 44.2215 30.9727 43.0958C33.6905 41.97 36.1599 40.32 38.24 38.24C40.3201 36.1599 41.97 33.6905 43.0957 30.9728C44.2215 28.255 44.801 25.3421 44.801 22.4004H37.8007C35.4811 22.4004 33.672 24.3443 32.8223 26.5027C32.7982 26.5642 32.7734 26.6254 32.7481 26.6866C32.1852 28.0455 31.3603 29.2802 30.3202 30.3202C29.2802 31.3602 28.0454 32.1853 26.6866 32.7482C25.3278 33.311 23.8714 33.6007 22.4005 33.6007C20.9296 33.6007 19.4732 33.311 18.1144 32.7482C16.7554 32.1853 15.5208 31.3602 14.4807 30.3202C13.4407 29.2802 12.6157 28.0455 12.0528 26.6866C11.4899 25.3277 11.2002 23.8713 11.2002 22.4004H0Z" fill="url(#paint1_linear_66_6161)"/>
<path d="M0.00170898 22.4005C0.00170898 10.029 10.0307 0 22.4021 0C24.3391 0 26.2186 0.245837 28.0113 0.708031C24.1646 1.69898 20.6161 3.70439 17.7594 6.56096C13.5586 10.7618 11.1985 16.4595 11.1985 22.4005H0.00170898Z" fill="#B3FDC3"/>
<defs>
<linearGradient id="paint0_linear_66_6161" x1="55.9999" y1="11.2002" x2="11.199" y2="11.2002" gradientUnits="userSpaceOnUse">
<stop stop-color="#99FCAF"/>
<stop offset="1" stop-color="#007900"/>
</linearGradient>
<linearGradient id="paint1_linear_66_6161" x1="1.46873e-06" y1="33.6007" x2="44.801" y2="33.6007" gradientUnits="userSpaceOnUse">
<stop stop-color="#00AC00"/>
<stop offset="1" stop-color="#33F95E"/>
</linearGradient>
</defs>
</svg>
