<svg width="18" height="14" viewBox="0 0 18 14" fill="none" xmlns="http://www.w3.org/2000/svg">
<path fill-rule="evenodd" clip-rule="evenodd" d="M9.18654 3.30222C11.6736 3.30232 14.0657 4.22441 15.8682 5.87789C16.0039 6.00554 16.2209 6.00393 16.3545 5.87428L17.652 4.61081C17.7197 4.54505 17.7575 4.45597 17.7569 4.36329C17.7563 4.27061 17.7175 4.18197 17.649 4.11697C12.918 -0.257741 5.4543 -0.257741 0.72329 4.11697C0.654758 4.18192 0.615874 4.27054 0.615242 4.36322C0.61461 4.4559 0.652283 4.545 0.719923 4.61081L2.01779 5.87428C2.15139 6.00413 2.36851 6.00574 2.50416 5.87789C4.3069 4.2243 6.69918 3.30221 9.18654 3.30222ZM9.18318 7.5225C10.5405 7.52241 11.8494 8.03415 12.8555 8.95828C12.9916 9.08943 13.2059 9.08659 13.3386 8.95187L14.6259 7.63256C14.6937 7.56336 14.7313 7.46948 14.7303 7.37193C14.7293 7.27438 14.6898 7.1813 14.6207 7.11351C11.5568 4.22266 6.81211 4.22266 3.74828 7.11351C3.67907 7.1813 3.63959 7.27443 3.63868 7.37201C3.63777 7.46959 3.67552 7.56346 3.74345 7.63256L5.03036 8.95187C5.16302 9.08659 5.37738 9.08943 5.51346 8.95828C6.51892 8.03476 7.82676 7.52307 9.18318 7.5225ZM11.7076 10.316C11.7095 10.4214 11.6725 10.523 11.6052 10.5968L9.4285 13.0515C9.3647 13.1236 9.27771 13.1642 9.18694 13.1642C9.09617 13.1642 9.00917 13.1236 8.94537 13.0515L6.76834 10.5968C6.70109 10.5229 6.66409 10.4213 6.66608 10.316C6.66808 10.2106 6.70889 10.1108 6.77887 10.0402C8.16897 8.72634 10.2049 8.72634 11.595 10.0402C11.6649 10.1109 11.7057 10.2107 11.7076 10.316Z" fill="black"/>
</svg>
