<svg width="24" height="24" viewBox="0 0 24 24" fill="none" xmlns="http://www.w3.org/2000/svg">
<path d="M8.49023 19H7.99023C3.99023 19 1.99023 18 1.99023 13V8C1.99023 4 3.99023 2 7.99023 2H15.9902C19.9902 2 21.9902 4 21.9902 8V13C21.9902 17 19.9902 19 15.9902 19H15.4902C15.1802 19 14.8802 19.15 14.6902 19.4L13.1902 21.4C12.5302 22.28 11.4502 22.28 10.7902 21.4L9.29023 19.4C9.13023 19.18 8.76023 19 8.49023 19Z" stroke="#005F00" stroke-width="1.5" stroke-miterlimit="10" stroke-linecap="round" stroke-linejoin="round"/>
<path d="M15.9867 11H15.9957" stroke="#005F00" stroke-width="2" stroke-linecap="round" stroke-linejoin="round"/>
<path d="M11.9857 11H11.9947" stroke="#005F00" stroke-width="2" stroke-linecap="round" stroke-linejoin="round"/>
<path d="M7.98474 11H7.99372" stroke="#005F00" stroke-width="2" stroke-linecap="round" stroke-linejoin="round"/>
</svg>
