<svg width="56" height="46" viewBox="0 0 56 46" fill="none" xmlns="http://www.w3.org/2000/svg">
<path d="M56.0002 22.6651C56.0002 16.7242 53.6401 11.0265 49.4392 6.82559C45.2383 2.62469 39.5406 0.264649 33.5997 0.264648C27.6587 0.264648 21.9611 2.62469 17.7602 6.82559C13.5593 11.0265 11.1992 16.7242 11.1992 22.6651H18.1995C20.5191 22.6651 22.3282 20.7212 23.1778 18.5627C23.7356 17.1456 24.5821 15.8432 25.6799 14.7453C27.7803 12.6449 30.6292 11.4649 33.5997 11.4649C36.5702 11.4649 39.419 12.6449 41.5195 14.7453C43.6199 16.8458 44.7999 19.6947 44.7999 22.6651H56.0002Z" fill="url(#paint0_linear_760_4478)"/>
<path d="M43.0959 31.2373C44.2217 28.5195 44.8011 25.6066 44.8011 22.665H56.0002C56.0002 35.0364 45.9711 45.0654 33.5997 45.0654C31.6622 45.0654 29.7821 44.8195 27.9893 44.3571C29.0037 44.0957 30.0008 43.7629 30.9729 43.3603C33.6906 42.2345 36.16 40.5846 38.2401 38.5045C40.3202 36.4244 41.9703 33.955 43.0959 31.2373Z" fill="#007900"/>
<path d="M0 22.665C-4.20832e-07 25.6068 0.579405 28.5196 1.70513 31.2374C2.83087 33.9552 4.48086 36.4246 6.56094 38.5047C8.64101 40.5846 11.1104 42.2347 13.8282 43.3604C16.5459 44.4862 19.4588 45.0655 22.4005 45.0655C25.3421 45.0655 28.2549 44.4862 30.9727 43.3604C33.6905 42.2347 36.1599 40.5846 38.24 38.5047C40.3201 36.4246 41.97 33.9552 43.0957 31.2374C44.2215 28.5196 44.801 25.6068 44.801 22.665H37.8007C35.4811 22.665 33.672 24.609 32.8223 26.7673C32.7982 26.8288 32.7734 26.8901 32.7481 26.9513C32.1852 28.3101 31.3603 29.5449 30.3202 30.5849C29.2802 31.6248 28.0454 32.4499 26.6866 33.0128C25.3278 33.5757 23.8714 33.8654 22.4005 33.8654C20.9296 33.8654 19.4732 33.5757 18.1144 33.0128C16.7554 32.4499 15.5208 31.6248 14.4807 30.5849C13.4407 29.5449 12.6157 28.3101 12.0528 26.9513C11.4899 25.5923 11.2002 24.1359 11.2002 22.665H0Z" fill="url(#paint1_linear_760_4478)"/>
<path d="M0.00195312 22.6651C0.00195312 10.2936 10.031 0.264648 22.4023 0.264648C24.3393 0.264648 26.2188 0.510485 28.0116 0.97268C24.1649 1.96363 20.6164 3.96904 17.7597 6.82561C13.5588 11.0265 11.1988 16.7242 11.1988 22.6651H0.00195312Z" fill="#B3FDC3"/>
<defs>
<linearGradient id="paint0_linear_760_4478" x1="56.0002" y1="11.4649" x2="11.1992" y2="11.4649" gradientUnits="userSpaceOnUse">
<stop stop-color="#99FCAF"/>
<stop offset="1" stop-color="#007900"/>
</linearGradient>
<linearGradient id="paint1_linear_760_4478" x1="1.46873e-06" y1="33.8654" x2="44.801" y2="33.8654" gradientUnits="userSpaceOnUse">
<stop stop-color="#00AC00"/>
<stop offset="1" stop-color="#33F95E"/>
</linearGradient>
</defs>
</svg>
