<svg width="40" height="32" viewBox="0 0 40 32" fill="none" xmlns="http://www.w3.org/2000/svg">
<path d="M39.9998 16.0004C39.9998 11.7569 38.314 7.68706 35.3134 4.6864C32.3127 1.68575 28.243 5.56477e-07 23.9994 0C19.7559 -5.56476e-07 15.6861 1.68575 12.6854 4.6864C9.68478 7.68706 7.99902 11.7569 7.99902 16.0004H12.9992C14.6561 16.0004 15.9483 14.6119 16.5552 13.0701C16.9536 12.0578 17.5583 11.1276 18.3424 10.3434C19.8427 8.84306 21.8776 8.00019 23.9994 8.00019C26.1212 8.00019 28.1561 8.84306 29.6564 10.3434C31.1568 11.8437 31.9996 13.8786 31.9996 16.0004H39.9998Z" fill="url(#paint0_linear_66_1762)"/>
<path d="M30.7827 22.1235C31.5868 20.1823 32.0007 18.1016 32.0007 16.0005H40C40 24.8372 32.8364 32.0008 23.9996 32.0008C22.6158 32.0008 21.2728 31.8251 19.9922 31.4949C20.7168 31.3082 21.429 31.0704 22.1233 30.7829C24.0646 29.9788 25.8285 28.8002 27.3143 27.3144C28.8001 25.8287 29.9787 24.0648 30.7827 22.1235Z" fill="#007900"/>
<path d="M0 16.0002C-3.00595e-07 18.1015 0.413862 20.1821 1.21795 22.1234C2.02205 24.0647 3.20063 25.8285 4.6864 27.3143C6.17217 28.8 7.93605 29.9786 9.8773 30.7827C11.8185 31.5868 13.8992 32.0006 16.0004 32.0006C18.1015 32.0006 20.1822 31.5868 22.1234 30.7827C24.0647 29.9786 25.8286 28.8 27.3144 27.3143C28.8001 25.8285 29.9787 24.0647 30.7828 22.1234C31.5869 20.1821 32.0008 18.1015 32.0008 16.0002H27.0006C25.3437 16.0002 24.0515 17.3888 23.4446 18.9305C23.4274 18.9744 23.4096 19.0181 23.3916 19.0619C22.9895 20.0324 22.4003 20.9144 21.6573 21.6573C20.9145 22.4001 20.0325 22.9895 19.0619 23.3915C18.0913 23.7936 17.051 24.0005 16.0004 24.0005C14.9498 24.0005 13.9095 23.7936 12.9389 23.3915C11.9682 22.9895 11.0863 22.4001 10.3434 21.6573C9.6005 20.9144 9.01122 20.0324 8.60917 19.0619C8.20712 18.0912 8.00019 17.0509 8.00019 16.0002H0Z" fill="url(#paint1_linear_66_1762)"/>
<path d="M0.000976562 16.0004C0.000976562 7.16359 7.16457 0 16.0013 0C17.3849 0 18.7274 0.175598 20.0079 0.505738C17.2603 1.21356 14.7256 2.646 12.6851 4.68641C9.68447 7.68704 7.99874 11.7569 7.99874 16.0004H0.000976562Z" fill="#B3FDC3"/>
<defs>
<linearGradient id="paint0_linear_66_1762" x1="39.9998" y1="8.00019" x2="7.99902" y2="8.00019" gradientUnits="userSpaceOnUse">
<stop stop-color="#99FCAF"/>
<stop offset="1" stop-color="#007900"/>
</linearGradient>
<linearGradient id="paint1_linear_66_1762" x1="1.0491e-06" y1="24.0005" x2="32.0008" y2="24.0005" gradientUnits="userSpaceOnUse">
<stop stop-color="#00AC00"/>
<stop offset="1" stop-color="#33F95E"/>
</linearGradient>
</defs>
</svg>
