<svg width="20" height="14" viewBox="0 0 20 14" fill="none" xmlns="http://www.w3.org/2000/svg">
<path fill-rule="evenodd" clip-rule="evenodd" d="M19.615 2.03295C19.615 1.3999 19.1375 0.886719 18.5484 0.886719H17.4817C16.8926 0.886719 16.415 1.3999 16.415 2.03295V11.9669C16.415 12.5999 16.8926 13.1131 17.4817 13.1131H18.5484C19.1375 13.1131 19.615 12.5999 19.615 11.9669V2.03295ZM12.1809 3.332H13.2476C13.8367 3.332 14.3143 3.8575 14.3143 4.50574V11.9394C14.3143 12.5876 13.8367 13.1131 13.2476 13.1131H12.1809C11.5918 13.1131 11.1143 12.5876 11.1143 11.9394V4.50574C11.1143 3.8575 11.5918 3.332 12.1809 3.332ZM7.84915 5.98105H6.78249C6.19338 5.98105 5.71582 6.51324 5.71582 7.16973V11.9244C5.71582 12.5809 6.19338 13.1131 6.78249 13.1131H7.84915C8.43826 13.1131 8.91582 12.5809 8.91582 11.9244V7.16973C8.91582 6.51324 8.43826 5.98105 7.84915 5.98105ZM2.54837 8.42634H1.48171C0.892602 8.42634 0.415039 8.95093 0.415039 9.59804V11.9414C0.415039 12.5885 0.892602 13.1131 1.48171 13.1131H2.54837C3.13748 13.1131 3.61504 12.5885 3.61504 11.9414V9.59804C3.61504 8.95093 3.13748 8.42634 2.54837 8.42634Z" fill="black"/>
</svg>
