<svg width="151" height="22" viewBox="0 0 151 22" fill="none" xmlns="http://www.w3.org/2000/svg">
<path d="M9.11419 4.29509H11.1498V1.13974C10.7986 1.09674 9.5908 1 8.18419 1C5.24925 1 3.23874 2.643 3.23874 5.66274V8.44186H0V11.9693H3.23874V20.845H7.20959V11.9701H10.3173L10.8107 8.44269H7.20866V6.01251C7.20959 4.99297 7.51804 4.29509 9.11419 4.29509Z" fill="white"/>
<path d="M80.8558 4.11613C79.9366 4.475 78.9571 4.71288 77.9359 4.82838C78.9864 4.27013 79.7883 3.39287 80.1652 2.3355C79.1857 2.85525 78.1043 3.22238 76.9517 3.42725C76.0217 2.54588 74.6961 2 73.2501 2C70.4444 2 68.1857 4.02675 68.1857 6.51137C68.1857 6.86888 68.2197 7.21263 68.3032 7.53988C64.0901 7.357 60.3621 5.55988 57.8578 2.82225C57.4206 3.49738 57.1641 4.27012 57.1641 5.102C57.1641 6.664 58.0679 8.04862 59.4151 8.85025C58.6009 8.8365 57.8022 8.62613 57.1255 8.29475C57.1255 8.3085 57.1255 8.32638 57.1255 8.34425C57.1255 10.536 58.8821 12.3565 61.1856 12.7759C60.7731 12.8763 60.3235 12.9244 59.8569 12.9244C59.5325 12.9244 59.205 12.9079 58.8975 12.8474C59.5541 14.6335 61.4173 15.9466 63.6328 15.9893C61.9086 17.1896 59.7194 17.9129 57.3495 17.9129C56.9339 17.9129 56.5353 17.8964 56.1367 17.851C58.3815 19.1394 61.0419 19.875 63.9109 19.875C73.2362 19.875 78.3345 13 78.3345 7.04075C78.3345 6.84137 78.3267 6.64887 78.3159 6.45775C79.3217 5.8225 80.1668 5.02913 80.8558 4.11613Z" fill="white"/>
<path fill-rule="evenodd" clip-rule="evenodd" d="M133.525 0H142.794C147.06 0 150.519 3.07862 150.519 6.875V15.125C150.519 18.9214 147.06 22 142.794 22H133.525C129.259 22 125.8 18.9214 125.8 15.125V6.875C125.8 3.07862 129.259 0 133.525 0ZM142.794 19.9375C145.776 19.9375 148.201 17.7787 148.201 15.125V6.875C148.201 4.22125 145.776 2.0625 142.794 2.0625H133.525C130.543 2.0625 128.117 4.22125 128.117 6.875V15.125C128.117 17.7787 130.543 19.9375 133.525 19.9375H142.794Z" fill="white"/>
<path fill-rule="evenodd" clip-rule="evenodd" d="M131.979 11C131.979 7.96263 134.746 5.5 138.159 5.5C141.572 5.5 144.339 7.96263 144.339 11C144.339 14.0374 141.572 16.5 138.159 16.5C134.746 16.5 131.979 14.0374 131.979 11ZM134.297 11C134.297 12.8948 136.03 14.4375 138.159 14.4375C140.288 14.4375 142.022 12.8948 142.022 11C142.022 9.10388 140.288 7.5625 138.159 7.5625C136.03 7.5625 134.297 9.10388 134.297 11Z" fill="white"/>
<ellipse cx="144.802" cy="5.08737" rx="0.823455" ry="0.732875" fill="white"/>
</svg>
